<svg xmlns="http://www.w3.org/2000/svg" xmlns:xlink="http://www.w3.org/1999/xlink" width="300" zoomAndPan="magnify" viewBox="0 0 224.87999 225" height="300" preserveAspectRatio="xMidYMid meet" version="1.0"><defs><clipPath id="3e6756987e"><path d="M 0 0.0585938 L 224.761719 0.0585938 L 224.761719 173 L 0 173 Z M 0 0.0585938 " clip-rule="nonzero"/></clipPath><clipPath id="67a2dd022c"><path d="M 52 179 L 98 179 L 98 224.9375 L 52 224.9375 Z M 52 179 " clip-rule="nonzero"/></clipPath><clipPath id="4a049ac30c"><path d="M 142 179 L 188 179 L 188 224.9375 L 142 224.9375 Z M 142 179 " clip-rule="nonzero"/></clipPath></defs><g clip-path="url(#3e6756987e)"><path fill="#ffffff" d="M 59.96875 142.484375 L 175.046875 142.484375 C 175.957031 142.488281 176.863281 142.453125 177.773438 142.378906 C 178.679688 142.304688 179.582031 142.191406 180.476562 142.042969 C 181.375 141.894531 182.265625 141.707031 183.148438 141.480469 C 184.027344 141.257812 184.898438 140.992188 185.757812 140.695312 C 186.617188 140.398438 187.464844 140.0625 188.296875 139.691406 C 189.125 139.324219 189.941406 138.917969 190.738281 138.480469 C 191.535156 138.039062 192.3125 137.570312 193.070312 137.066406 C 193.828125 136.558594 194.5625 136.023438 195.273438 135.457031 C 195.984375 134.890625 196.671875 134.296875 197.335938 133.671875 C 197.996094 133.046875 198.628906 132.394531 199.238281 131.71875 C 199.84375 131.039062 200.421875 130.335938 200.96875 129.609375 C 201.515625 128.882812 202.03125 128.132812 202.515625 127.363281 C 203 126.59375 203.449219 125.804688 203.867188 124.996094 C 204.285156 124.1875 204.667969 123.363281 205.015625 122.519531 C 205.363281 121.679688 205.671875 120.828125 205.949219 119.960938 C 206.226562 119.09375 206.464844 118.214844 206.664062 117.328125 L 224.691406 39.226562 C 224.820312 38.675781 224.882812 38.121094 224.886719 37.554688 C 224.886719 36.992188 224.824219 36.433594 224.699219 35.882812 C 224.574219 35.335938 224.390625 34.804688 224.148438 34.296875 C 223.902344 33.789062 223.605469 33.3125 223.253906 32.871094 C 222.902344 32.429688 222.507812 32.035156 222.066406 31.683594 C 221.625 31.328125 221.148438 31.03125 220.640625 30.785156 C 220.132812 30.542969 219.605469 30.355469 219.054688 30.230469 C 218.503906 30.105469 217.949219 30.042969 217.382812 30.042969 L 42.972656 30.042969 L 37.285156 5.839844 C 37.089844 5.015625 36.769531 4.25 36.316406 3.535156 C 35.863281 2.820312 35.304688 2.203125 34.640625 1.679688 C 33.976562 1.152344 33.246094 0.753906 32.449219 0.476562 C 31.652344 0.199219 30.828125 0.0585938 29.984375 0.0585938 L 7.496094 0.0585938 C 7.003906 0.0585938 6.515625 0.109375 6.035156 0.203125 C 5.550781 0.300781 5.082031 0.441406 4.628906 0.628906 C 4.171875 0.820312 3.742188 1.050781 3.332031 1.324219 C 2.921875 1.597656 2.542969 1.90625 2.195312 2.253906 C 1.847656 2.605469 1.535156 2.980469 1.261719 3.390625 C 0.988281 3.800781 0.757812 4.234375 0.570312 4.6875 C 0.382812 5.140625 0.238281 5.609375 0.144531 6.09375 C 0.046875 6.578125 0 7.0625 0 7.554688 C 0 8.046875 0.046875 8.535156 0.144531 9.019531 C 0.238281 9.5 0.382812 9.96875 0.570312 10.425781 C 0.757812 10.878906 0.988281 11.3125 1.261719 11.71875 C 1.535156 12.128906 1.847656 12.507812 2.195312 12.855469 C 2.542969 13.203125 2.921875 13.515625 3.332031 13.789062 C 3.742188 14.0625 4.171875 14.292969 4.628906 14.480469 C 5.082031 14.667969 5.550781 14.8125 6.035156 14.90625 C 6.515625 15.003906 7.003906 15.050781 7.496094 15.050781 L 24.046875 15.050781 L 50.972656 129.410156 C 49.804688 129.925781 48.6875 130.539062 47.621094 131.246094 C 46.558594 131.953125 45.558594 132.746094 44.632812 133.621094 C 43.703125 134.5 42.851562 135.449219 42.085938 136.46875 C 41.316406 137.492188 40.640625 138.570312 40.058594 139.707031 C 39.472656 140.84375 38.992188 142.023438 38.605469 143.242188 C 38.222656 144.460938 37.949219 145.703125 37.777344 146.972656 C 37.605469 148.238281 37.542969 149.507812 37.589844 150.785156 C 37.632812 152.0625 37.789062 153.328125 38.050781 154.578125 C 38.3125 155.828125 38.675781 157.050781 39.144531 158.238281 C 39.613281 159.425781 40.179688 160.566406 40.84375 161.660156 C 41.507812 162.753906 42.261719 163.78125 43.097656 164.742188 C 43.9375 165.707031 44.851562 166.59375 45.84375 167.402344 C 46.832031 168.210938 47.882812 168.929688 48.996094 169.558594 C 50.109375 170.1875 51.265625 170.714844 52.46875 171.148438 C 53.671875 171.578125 54.90625 171.90625 56.164062 172.128906 C 57.421875 172.347656 58.691406 172.460938 59.96875 172.46875 L 202.390625 172.46875 C 202.882812 172.46875 203.371094 172.421875 203.855469 172.324219 C 204.335938 172.226562 204.804688 172.085938 205.261719 171.898438 C 205.714844 171.710938 206.148438 171.476562 206.554688 171.203125 C 206.964844 170.929688 207.34375 170.621094 207.691406 170.273438 C 208.039062 169.925781 208.351562 169.546875 208.625 169.136719 C 208.898438 168.726562 209.128906 168.296875 209.316406 167.839844 C 209.503906 167.386719 209.648438 166.917969 209.742188 166.433594 C 209.839844 165.953125 209.886719 165.464844 209.886719 164.972656 C 209.886719 164.480469 209.839844 163.992188 209.742188 163.507812 C 209.648438 163.027344 209.503906 162.558594 209.316406 162.101562 C 209.128906 161.648438 208.898438 161.214844 208.625 160.808594 C 208.351562 160.398438 208.039062 160.019531 207.691406 159.671875 C 207.34375 159.324219 206.964844 159.011719 206.554688 158.738281 C 206.148438 158.464844 205.714844 158.234375 205.261719 158.046875 C 204.804688 157.859375 204.335938 157.714844 203.855469 157.621094 C 203.371094 157.523438 202.882812 157.476562 202.390625 157.476562 L 59.96875 157.476562 C 59.476562 157.476562 58.988281 157.429688 58.503906 157.332031 C 58.023438 157.234375 57.554688 157.09375 57.097656 156.90625 C 56.644531 156.71875 56.210938 156.484375 55.804688 156.210938 C 55.394531 155.9375 55.015625 155.628906 54.667969 155.28125 C 54.320312 154.933594 54.007812 154.554688 53.734375 154.144531 C 53.460938 153.734375 53.230469 153.304688 53.042969 152.847656 C 52.855469 152.394531 52.710938 151.925781 52.617188 151.441406 C 52.519531 150.960938 52.472656 150.472656 52.472656 149.980469 C 52.472656 149.488281 52.519531 149 52.617188 148.519531 C 52.710938 148.035156 52.855469 147.566406 53.042969 147.113281 C 53.230469 146.65625 53.460938 146.226562 53.734375 145.816406 C 54.007812 145.40625 54.320312 145.027344 54.667969 144.679688 C 55.015625 144.332031 55.394531 144.019531 55.804688 143.746094 C 56.210938 143.472656 56.644531 143.242188 57.097656 143.054688 C 57.554688 142.867188 58.023438 142.722656 58.503906 142.628906 C 58.988281 142.53125 59.476562 142.484375 59.96875 142.484375 Z M 207.960938 45.035156 L 192.054688 113.953125 C 191.839844 114.910156 191.542969 115.84375 191.167969 116.75 C 190.792969 117.65625 190.347656 118.523438 189.824219 119.355469 C 189.304688 120.1875 188.714844 120.96875 188.0625 121.699219 C 187.410156 122.429688 186.699219 123.101562 185.929688 123.714844 C 185.164062 124.324219 184.347656 124.867188 183.488281 125.339844 C 182.628906 125.8125 181.738281 126.210938 180.8125 126.53125 C 179.882812 126.851562 178.9375 127.09375 177.96875 127.253906 C 177 127.417969 176.027344 127.496094 175.046875 127.492188 L 65.90625 127.492188 L 46.476562 45.035156 Z M 207.960938 45.035156 " fill-opacity="1" fill-rule="nonzero"/></g><g clip-path="url(#67a2dd022c)"><path fill="#ffffff" d="M 74.960938 179.964844 C 74.222656 179.964844 73.488281 180 72.753906 180.074219 C 72.023438 180.144531 71.296875 180.253906 70.574219 180.394531 C 69.851562 180.539062 69.136719 180.71875 68.433594 180.933594 C 67.726562 181.144531 67.035156 181.394531 66.355469 181.675781 C 65.671875 181.957031 65.007812 182.273438 64.359375 182.621094 C 63.710938 182.964844 63.078125 183.34375 62.464844 183.753906 C 61.855469 184.164062 61.261719 184.601562 60.695312 185.070312 C 60.125 185.535156 59.578125 186.03125 59.058594 186.550781 C 58.539062 187.070312 58.042969 187.617188 57.578125 188.1875 C 57.109375 188.753906 56.671875 189.347656 56.261719 189.957031 C 55.851562 190.570312 55.472656 191.203125 55.128906 191.851562 C 54.78125 192.5 54.464844 193.164062 54.183594 193.847656 C 53.902344 194.527344 53.652344 195.21875 53.441406 195.925781 C 53.226562 196.628906 53.046875 197.34375 52.902344 198.066406 C 52.761719 198.789062 52.652344 199.515625 52.582031 200.246094 C 52.507812 200.980469 52.472656 201.714844 52.472656 202.453125 C 52.472656 203.1875 52.507812 203.921875 52.582031 204.65625 C 52.652344 205.390625 52.761719 206.117188 52.902344 206.839844 C 53.046875 207.5625 53.226562 208.273438 53.441406 208.980469 C 53.652344 209.683594 53.902344 210.378906 54.183594 211.058594 C 54.464844 211.738281 54.78125 212.402344 55.128906 213.054688 C 55.472656 213.703125 55.851562 214.332031 56.261719 214.945312 C 56.671875 215.558594 57.109375 216.148438 57.578125 216.71875 C 58.042969 217.289062 58.539062 217.832031 59.058594 218.351562 C 59.578125 218.875 60.125 219.367188 60.695312 219.835938 C 61.261719 220.300781 61.855469 220.742188 62.464844 221.148438 C 63.078125 221.558594 63.710938 221.9375 64.359375 222.285156 C 65.007812 222.632812 65.671875 222.945312 66.355469 223.226562 C 67.035156 223.511719 67.726562 223.757812 68.433594 223.972656 C 69.136719 224.183594 69.851562 224.363281 70.574219 224.507812 C 71.296875 224.652344 72.023438 224.757812 72.753906 224.832031 C 73.488281 224.902344 74.222656 224.941406 74.960938 224.941406 C 75.695312 224.941406 76.429688 224.902344 77.164062 224.832031 C 77.898438 224.757812 78.625 224.652344 79.347656 224.507812 C 80.070312 224.363281 80.78125 224.183594 81.488281 223.972656 C 82.191406 223.757812 82.886719 223.511719 83.566406 223.226562 C 84.246094 222.945312 84.910156 222.632812 85.5625 222.285156 C 86.210938 221.9375 86.839844 221.558594 87.453125 221.148438 C 88.066406 220.742188 88.65625 220.300781 89.226562 219.835938 C 89.796875 219.367188 90.339844 218.875 90.863281 218.351562 C 91.382812 217.832031 91.875 217.289062 92.34375 216.71875 C 92.8125 216.148438 93.25 215.558594 93.65625 214.945312 C 94.066406 214.332031 94.445312 213.703125 94.792969 213.054688 C 95.140625 212.402344 95.453125 211.738281 95.734375 211.058594 C 96.019531 210.378906 96.265625 209.683594 96.480469 208.980469 C 96.695312 208.273438 96.871094 207.5625 97.015625 206.839844 C 97.160156 206.117188 97.265625 205.390625 97.339844 204.65625 C 97.410156 203.921875 97.449219 203.1875 97.449219 202.453125 C 97.449219 201.714844 97.410156 200.980469 97.339844 200.246094 C 97.265625 199.515625 97.160156 198.789062 97.015625 198.066406 C 96.871094 197.34375 96.695312 196.628906 96.480469 195.925781 C 96.265625 195.21875 96.019531 194.527344 95.734375 193.847656 C 95.453125 193.164062 95.140625 192.5 94.792969 191.851562 C 94.445312 191.203125 94.066406 190.570312 93.65625 189.957031 C 93.25 189.347656 92.8125 188.753906 92.34375 188.1875 C 91.875 187.617188 91.382812 187.070312 90.863281 186.550781 C 90.339844 186.03125 89.796875 185.535156 89.226562 185.070312 C 88.65625 184.601562 88.066406 184.164062 87.453125 183.753906 C 86.839844 183.34375 86.210938 182.964844 85.5625 182.621094 C 84.910156 182.273438 84.246094 181.957031 83.566406 181.675781 C 82.886719 181.394531 82.191406 181.144531 81.488281 180.933594 C 80.78125 180.71875 80.070312 180.539062 79.347656 180.394531 C 78.625 180.253906 77.898438 180.144531 77.164062 180.074219 C 76.429688 180 75.695312 179.964844 74.960938 179.964844 Z M 74.960938 209.949219 C 74.46875 209.949219 73.980469 209.898438 73.496094 209.804688 C 73.015625 209.707031 72.546875 209.566406 72.089844 209.378906 C 71.636719 209.1875 71.203125 208.957031 70.796875 208.683594 C 70.386719 208.410156 70.007812 208.101562 69.660156 207.753906 C 69.3125 207.40625 69 207.027344 68.726562 206.617188 C 68.453125 206.207031 68.222656 205.773438 68.035156 205.320312 C 67.847656 204.867188 67.703125 204.398438 67.609375 203.914062 C 67.511719 203.429688 67.464844 202.945312 67.464844 202.453125 C 67.464844 201.960938 67.511719 201.472656 67.609375 200.988281 C 67.703125 200.507812 67.847656 200.039062 68.035156 199.582031 C 68.222656 199.128906 68.453125 198.695312 68.726562 198.289062 C 69 197.878906 69.3125 197.5 69.660156 197.152344 C 70.007812 196.804688 70.386719 196.492188 70.796875 196.21875 C 71.203125 195.945312 71.636719 195.714844 72.089844 195.527344 C 72.546875 195.339844 73.015625 195.195312 73.496094 195.101562 C 73.980469 195.003906 74.46875 194.957031 74.960938 194.957031 C 75.453125 194.957031 75.941406 195.003906 76.421875 195.101562 C 76.90625 195.195312 77.375 195.339844 77.828125 195.527344 C 78.285156 195.714844 78.714844 195.945312 79.125 196.21875 C 79.535156 196.492188 79.914062 196.804688 80.261719 197.152344 C 80.609375 197.5 80.917969 197.878906 81.191406 198.289062 C 81.464844 198.695312 81.695312 199.128906 81.886719 199.582031 C 82.074219 200.039062 82.214844 200.507812 82.3125 200.988281 C 82.40625 201.472656 82.457031 201.960938 82.457031 202.453125 C 82.457031 202.945312 82.40625 203.429688 82.3125 203.914062 C 82.214844 204.398438 82.074219 204.867188 81.886719 205.320312 C 81.695312 205.773438 81.464844 206.207031 81.191406 206.617188 C 80.917969 207.027344 80.609375 207.40625 80.261719 207.753906 C 79.914062 208.101562 79.535156 208.410156 79.125 208.683594 C 78.714844 208.957031 78.285156 209.1875 77.828125 209.378906 C 77.375 209.566406 76.90625 209.707031 76.421875 209.804688 C 75.941406 209.898438 75.453125 209.949219 74.960938 209.949219 Z M 74.960938 209.949219 " fill-opacity="1" fill-rule="nonzero"/></g><g clip-path="url(#4a049ac30c)"><path fill="#ffffff" d="M 164.910156 179.964844 C 164.175781 179.964844 163.441406 180 162.707031 180.074219 C 161.976562 180.144531 161.246094 180.253906 160.523438 180.394531 C 159.800781 180.539062 159.089844 180.71875 158.382812 180.933594 C 157.679688 181.144531 156.988281 181.394531 156.304688 181.675781 C 155.625 181.957031 154.960938 182.273438 154.3125 182.621094 C 153.660156 182.964844 153.03125 183.34375 152.417969 183.753906 C 151.804688 184.164062 151.214844 184.601562 150.644531 185.070312 C 150.078125 185.535156 149.53125 186.03125 149.011719 186.550781 C 148.488281 187.070312 147.996094 187.617188 147.527344 188.1875 C 147.0625 188.753906 146.625 189.347656 146.214844 189.957031 C 145.804688 190.570312 145.425781 191.203125 145.078125 191.851562 C 144.730469 192.5 144.417969 193.164062 144.136719 193.847656 C 143.855469 194.527344 143.605469 195.21875 143.390625 195.925781 C 143.179688 196.628906 143 197.34375 142.855469 198.066406 C 142.710938 198.789062 142.605469 199.515625 142.53125 200.246094 C 142.460938 200.980469 142.425781 201.714844 142.425781 202.453125 C 142.425781 203.1875 142.460938 203.921875 142.53125 204.65625 C 142.605469 205.390625 142.710938 206.117188 142.855469 206.839844 C 143 207.5625 143.179688 208.273438 143.390625 208.980469 C 143.605469 209.683594 143.855469 210.378906 144.136719 211.058594 C 144.417969 211.738281 144.730469 212.402344 145.078125 213.054688 C 145.425781 213.703125 145.804688 214.332031 146.214844 214.945312 C 146.625 215.558594 147.0625 216.148438 147.527344 216.71875 C 147.996094 217.289062 148.488281 217.832031 149.011719 218.351562 C 149.53125 218.875 150.078125 219.367188 150.644531 219.835938 C 151.214844 220.300781 151.804688 220.742188 152.417969 221.148438 C 153.03125 221.558594 153.660156 221.9375 154.3125 222.285156 C 154.960938 222.632812 155.625 222.945312 156.304688 223.226562 C 156.988281 223.511719 157.679688 223.757812 158.382812 223.972656 C 159.089844 224.183594 159.800781 224.363281 160.523438 224.507812 C 161.246094 224.652344 161.976562 224.757812 162.707031 224.832031 C 163.441406 224.902344 164.175781 224.941406 164.910156 224.941406 C 165.648438 224.941406 166.382812 224.902344 167.117188 224.832031 C 167.847656 224.757812 168.578125 224.652344 169.300781 224.507812 C 170.023438 224.363281 170.734375 224.183594 171.441406 223.972656 C 172.144531 223.757812 172.835938 223.511719 173.519531 223.226562 C 174.199219 222.945312 174.863281 222.632812 175.511719 222.285156 C 176.164062 221.9375 176.792969 221.558594 177.40625 221.148438 C 178.019531 220.742188 178.609375 220.300781 179.179688 219.835938 C 179.746094 219.367188 180.292969 218.875 180.8125 218.351562 C 181.335938 217.832031 181.828125 217.289062 182.296875 216.71875 C 182.761719 216.148438 183.199219 215.558594 183.609375 214.945312 C 184.019531 214.332031 184.398438 213.703125 184.746094 213.054688 C 185.09375 212.402344 185.40625 211.738281 185.6875 211.058594 C 185.96875 210.378906 186.21875 209.683594 186.433594 208.980469 C 186.644531 208.273438 186.824219 207.5625 186.96875 206.839844 C 187.113281 206.117188 187.21875 205.390625 187.292969 204.65625 C 187.363281 203.921875 187.398438 203.1875 187.398438 202.453125 C 187.398438 201.714844 187.363281 200.980469 187.292969 200.246094 C 187.21875 199.515625 187.113281 198.789062 186.96875 198.066406 C 186.824219 197.34375 186.644531 196.628906 186.433594 195.925781 C 186.21875 195.21875 185.96875 194.527344 185.6875 193.847656 C 185.40625 193.164062 185.09375 192.5 184.746094 191.851562 C 184.398438 191.203125 184.019531 190.570312 183.609375 189.957031 C 183.199219 189.347656 182.761719 188.753906 182.296875 188.1875 C 181.828125 187.617188 181.335938 187.070312 180.8125 186.550781 C 180.292969 186.03125 179.746094 185.535156 179.179688 185.070312 C 178.609375 184.601562 178.019531 184.164062 177.40625 183.753906 C 176.792969 183.34375 176.164062 182.964844 175.511719 182.621094 C 174.863281 182.273438 174.199219 181.957031 173.519531 181.675781 C 172.835938 181.394531 172.144531 181.144531 171.441406 180.933594 C 170.734375 180.71875 170.023438 180.539062 169.300781 180.394531 C 168.578125 180.253906 167.847656 180.144531 167.117188 180.074219 C 166.382812 180 165.648438 179.964844 164.910156 179.964844 Z M 164.910156 209.949219 C 164.417969 209.949219 163.933594 209.898438 163.449219 209.804688 C 162.96875 209.707031 162.5 209.566406 162.042969 209.378906 C 161.589844 209.1875 161.15625 208.957031 160.746094 208.683594 C 160.339844 208.410156 159.960938 208.101562 159.613281 207.753906 C 159.261719 207.40625 158.953125 207.027344 158.679688 206.617188 C 158.40625 206.207031 158.175781 205.773438 157.988281 205.320312 C 157.796875 204.867188 157.65625 204.398438 157.558594 203.914062 C 157.464844 203.429688 157.414062 202.945312 157.414062 202.453125 C 157.414062 201.960938 157.464844 201.472656 157.558594 200.988281 C 157.65625 200.507812 157.796875 200.039062 157.988281 199.582031 C 158.175781 199.128906 158.40625 198.695312 158.679688 198.289062 C 158.953125 197.878906 159.261719 197.5 159.613281 197.152344 C 159.960938 196.804688 160.339844 196.492188 160.746094 196.21875 C 161.15625 195.945312 161.589844 195.714844 162.042969 195.527344 C 162.5 195.339844 162.96875 195.195312 163.449219 195.101562 C 163.933594 195.003906 164.417969 194.957031 164.910156 194.957031 C 165.402344 194.957031 165.890625 195.003906 166.375 195.101562 C 166.855469 195.195312 167.324219 195.339844 167.78125 195.527344 C 168.234375 195.714844 168.667969 195.945312 169.078125 196.21875 C 169.484375 196.492188 169.863281 196.804688 170.210938 197.152344 C 170.558594 197.5 170.871094 197.878906 171.144531 198.289062 C 171.417969 198.695312 171.648438 199.128906 171.835938 199.582031 C 172.027344 200.039062 172.167969 200.507812 172.265625 200.988281 C 172.359375 201.472656 172.40625 201.960938 172.40625 202.453125 C 172.40625 202.945312 172.359375 203.429688 172.265625 203.914062 C 172.167969 204.398438 172.027344 204.867188 171.835938 205.320312 C 171.648438 205.773438 171.417969 206.207031 171.144531 206.617188 C 170.871094 207.027344 170.558594 207.40625 170.210938 207.753906 C 169.863281 208.101562 169.484375 208.410156 169.078125 208.683594 C 168.667969 208.957031 168.234375 209.1875 167.78125 209.378906 C 167.324219 209.566406 166.855469 209.707031 166.375 209.804688 C 165.890625 209.898438 165.402344 209.949219 164.910156 209.949219 Z M 164.910156 209.949219 " fill-opacity="1" fill-rule="nonzero"/></g></svg>