<svg xmlns="http://www.w3.org/2000/svg" xmlns:xlink="http://www.w3.org/1999/xlink" width="300" zoomAndPan="magnify" viewBox="0 0 224.87999 225" height="300" preserveAspectRatio="xMidYMid meet" version="1.0"><defs><clipPath id="b8844cdae6"><path d="M 37.328125 37.390625 L 187.25 37.390625 L 187.25 153 L 37.328125 153 Z M 37.328125 37.390625 " clip-rule="nonzero"/></clipPath><clipPath id="d8a14f0194"><path d="M 72 157 L 103 157 L 103 187.308594 L 72 187.308594 Z M 72 157 " clip-rule="nonzero"/></clipPath><clipPath id="a03489d864"><path d="M 132 157 L 163 157 L 163 187.308594 L 132 187.308594 Z M 132 157 " clip-rule="nonzero"/></clipPath></defs><g clip-path="url(#b8844cdae6)"><path fill="#ffffff" d="M 77.386719 132.523438 L 154.253906 132.523438 C 155.472656 132.527344 156.683594 132.429688 157.882812 132.230469 C 159.085938 132.027344 160.261719 131.730469 161.410156 131.328125 C 162.5625 130.929688 163.667969 130.4375 164.734375 129.847656 C 165.804688 129.261719 166.8125 128.589844 167.765625 127.832031 C 168.71875 127.074219 169.601562 126.238281 170.414062 125.332031 C 171.226562 124.425781 171.957031 123.457031 172.601562 122.425781 C 173.25 121.394531 173.808594 120.316406 174.273438 119.191406 C 174.738281 118.0625 175.105469 116.90625 175.375 115.71875 L 187.417969 63.550781 C 187.5 63.183594 187.542969 62.8125 187.546875 62.4375 C 187.546875 62.058594 187.503906 61.6875 187.421875 61.320312 C 187.339844 60.953125 187.214844 60.597656 187.050781 60.257812 C 186.890625 59.917969 186.691406 59.601562 186.457031 59.308594 C 186.222656 59.011719 185.957031 58.746094 185.664062 58.511719 C 185.367188 58.277344 185.050781 58.078125 184.710938 57.914062 C 184.371094 57.75 184.019531 57.625 183.652344 57.542969 C 183.285156 57.460938 182.910156 57.417969 182.535156 57.417969 L 66.035156 57.417969 L 62.234375 41.25 C 62.105469 40.699219 61.890625 40.1875 61.585938 39.710938 C 61.285156 39.234375 60.910156 38.820312 60.46875 38.46875 C 60.027344 38.121094 59.539062 37.851562 59.003906 37.667969 C 58.472656 37.480469 57.921875 37.390625 57.359375 37.390625 L 42.335938 37.390625 C 42.007812 37.390625 41.683594 37.421875 41.359375 37.484375 C 41.039062 37.550781 40.722656 37.644531 40.421875 37.769531 C 40.117188 37.894531 39.828125 38.050781 39.554688 38.234375 C 39.28125 38.414062 39.027344 38.625 38.796875 38.855469 C 38.5625 39.089844 38.355469 39.339844 38.171875 39.613281 C 37.992188 39.886719 37.835938 40.175781 37.710938 40.480469 C 37.585938 40.785156 37.488281 41.097656 37.425781 41.417969 C 37.363281 41.742188 37.328125 42.066406 37.328125 42.394531 C 37.328125 42.726562 37.363281 43.050781 37.425781 43.375 C 37.488281 43.695312 37.585938 44.007812 37.710938 44.3125 C 37.835938 44.617188 37.992188 44.90625 38.171875 45.179688 C 38.355469 45.453125 38.5625 45.703125 38.796875 45.9375 C 39.027344 46.167969 39.28125 46.378906 39.554688 46.558594 C 39.828125 46.742188 40.117188 46.898438 40.421875 47.023438 C 40.722656 47.148438 41.039062 47.242188 41.359375 47.308594 C 41.683594 47.371094 42.007812 47.402344 42.335938 47.402344 L 53.390625 47.402344 L 71.378906 123.792969 C 70.597656 124.136719 69.851562 124.546875 69.140625 125.019531 C 68.429688 125.488281 67.761719 126.019531 67.140625 126.605469 C 66.519531 127.191406 65.953125 127.824219 65.441406 128.507812 C 64.929688 129.191406 64.476562 129.910156 64.085938 130.667969 C 63.695312 131.429688 63.375 132.214844 63.117188 133.03125 C 62.863281 133.84375 62.675781 134.675781 62.5625 135.519531 C 62.449219 136.367188 62.40625 137.21875 62.4375 138.070312 C 62.46875 138.921875 62.570312 139.769531 62.746094 140.601562 C 62.917969 141.4375 63.164062 142.253906 63.476562 143.046875 C 63.789062 143.839844 64.167969 144.601562 64.613281 145.332031 C 65.054688 146.0625 65.558594 146.75 66.117188 147.394531 C 66.679688 148.035156 67.289062 148.628906 67.949219 149.167969 C 68.613281 149.707031 69.316406 150.1875 70.058594 150.609375 C 70.800781 151.027344 71.574219 151.382812 72.378906 151.671875 C 73.179688 151.960938 74.003906 152.175781 74.84375 152.324219 C 75.683594 152.472656 76.53125 152.550781 77.386719 152.550781 L 172.519531 152.550781 C 172.851562 152.550781 173.175781 152.519531 173.496094 152.457031 C 173.820312 152.390625 174.132812 152.296875 174.4375 152.171875 C 174.742188 152.046875 175.03125 151.890625 175.300781 151.707031 C 175.574219 151.527344 175.828125 151.320312 176.0625 151.085938 C 176.292969 150.851562 176.5 150.601562 176.683594 150.328125 C 176.867188 150.054688 177.019531 149.765625 177.148438 149.460938 C 177.273438 149.15625 177.367188 148.84375 177.433594 148.523438 C 177.496094 148.199219 177.527344 147.875 177.527344 147.546875 C 177.527344 147.214844 177.496094 146.890625 177.433594 146.570312 C 177.367188 146.246094 177.273438 145.933594 177.148438 145.628906 C 177.019531 145.324219 176.867188 145.035156 176.683594 144.761719 C 176.5 144.492188 176.292969 144.238281 176.0625 144.003906 C 175.828125 143.773438 175.574219 143.566406 175.300781 143.382812 C 175.03125 143.199219 174.742188 143.046875 174.4375 142.917969 C 174.132812 142.792969 173.820312 142.699219 173.496094 142.632812 C 173.175781 142.570312 172.851562 142.539062 172.519531 142.539062 L 77.386719 142.539062 C 77.058594 142.539062 76.730469 142.507812 76.410156 142.441406 C 76.085938 142.378906 75.773438 142.28125 75.46875 142.15625 C 75.167969 142.03125 74.878906 141.878906 74.605469 141.695312 C 74.332031 141.511719 74.078125 141.304688 73.84375 141.070312 C 73.613281 140.839844 73.40625 140.585938 73.222656 140.3125 C 73.039062 140.039062 72.886719 139.75 72.761719 139.449219 C 72.632812 139.144531 72.539062 138.832031 72.476562 138.507812 C 72.410156 138.1875 72.378906 137.859375 72.378906 137.53125 C 72.378906 137.203125 72.410156 136.875 72.476562 136.554688 C 72.539062 136.230469 72.632812 135.917969 72.761719 135.613281 C 72.886719 135.3125 73.039062 135.023438 73.222656 134.75 C 73.40625 134.476562 73.613281 134.222656 73.84375 133.992188 C 74.078125 133.757812 74.332031 133.550781 74.605469 133.367188 C 74.878906 133.183594 75.167969 133.03125 75.46875 132.90625 C 75.773438 132.78125 76.085938 132.683594 76.410156 132.621094 C 76.730469 132.554688 77.058594 132.523438 77.386719 132.523438 Z M 176.242188 67.433594 L 165.617188 113.46875 C 165.472656 114.105469 165.273438 114.730469 165.023438 115.335938 C 164.773438 115.941406 164.476562 116.519531 164.125 117.074219 C 163.777344 117.628906 163.386719 118.152344 162.949219 118.640625 C 162.511719 119.128906 162.039062 119.578125 161.523438 119.984375 C 161.011719 120.394531 160.46875 120.757812 159.894531 121.070312 C 159.320312 121.386719 158.722656 121.652344 158.105469 121.867188 C 157.488281 122.082031 156.855469 122.246094 156.207031 122.351562 C 155.5625 122.460938 154.910156 122.511719 154.253906 122.511719 L 81.351562 122.511719 L 68.375 67.433594 Z M 176.242188 67.433594 " fill-opacity="1" fill-rule="nonzero"/></g><g clip-path="url(#d8a14f0194)"><path fill="#ffffff" d="M 87.398438 157.558594 C 86.414062 157.558594 85.4375 157.65625 84.46875 157.847656 C 83.503906 158.039062 82.5625 158.324219 81.652344 158.703125 C 80.742188 159.082031 79.875 159.542969 79.054688 160.089844 C 78.234375 160.640625 77.476562 161.261719 76.777344 161.960938 C 76.082031 162.65625 75.457031 163.414062 74.910156 164.234375 C 74.363281 165.054688 73.898438 165.921875 73.523438 166.832031 C 73.144531 167.742188 72.859375 168.683594 72.667969 169.648438 C 72.476562 170.617188 72.378906 171.59375 72.378906 172.582031 C 72.378906 173.566406 72.476562 174.542969 72.667969 175.511719 C 72.859375 176.480469 73.144531 177.417969 73.523438 178.328125 C 73.898438 179.242188 74.363281 180.105469 74.910156 180.925781 C 75.457031 181.746094 76.082031 182.503906 76.777344 183.203125 C 77.476562 183.898438 78.234375 184.523438 79.054688 185.070312 C 79.875 185.617188 80.742188 186.082031 81.652344 186.457031 C 82.5625 186.835938 83.503906 187.121094 84.46875 187.3125 C 85.4375 187.507812 86.414062 187.601562 87.398438 187.601562 C 88.386719 187.601562 89.363281 187.507812 90.332031 187.3125 C 91.296875 187.121094 92.238281 186.835938 93.148438 186.457031 C 94.058594 186.082031 94.925781 185.617188 95.746094 185.070312 C 96.566406 184.523438 97.324219 183.898438 98.023438 183.203125 C 98.71875 182.503906 99.34375 181.746094 99.890625 180.925781 C 100.4375 180.105469 100.902344 179.242188 101.277344 178.328125 C 101.65625 177.417969 101.941406 176.480469 102.132812 175.511719 C 102.324219 174.542969 102.421875 173.566406 102.421875 172.582031 C 102.421875 171.59375 102.324219 170.617188 102.132812 169.648438 C 101.941406 168.683594 101.65625 167.742188 101.277344 166.832031 C 100.902344 165.921875 100.4375 165.054688 99.890625 164.234375 C 99.34375 163.414062 98.71875 162.65625 98.023438 161.960938 C 97.324219 161.261719 96.566406 160.640625 95.746094 160.089844 C 94.925781 159.542969 94.058594 159.082031 93.148438 158.703125 C 92.238281 158.324219 91.296875 158.039062 90.332031 157.847656 C 89.363281 157.65625 88.386719 157.558594 87.398438 157.558594 Z M 87.398438 177.589844 C 87.070312 177.589844 86.746094 177.554688 86.421875 177.492188 C 86.101562 177.425781 85.789062 177.332031 85.484375 177.207031 C 85.179688 177.082031 84.890625 176.925781 84.617188 176.742188 C 84.34375 176.5625 84.09375 176.355469 83.859375 176.121094 C 83.628906 175.890625 83.417969 175.636719 83.238281 175.363281 C 83.054688 175.089844 82.898438 174.800781 82.773438 174.496094 C 82.648438 174.191406 82.554688 173.878906 82.488281 173.558594 C 82.425781 173.234375 82.394531 172.910156 82.394531 172.582031 C 82.394531 172.253906 82.425781 171.925781 82.488281 171.605469 C 82.554688 171.28125 82.648438 170.96875 82.773438 170.664062 C 82.898438 170.359375 83.054688 170.074219 83.238281 169.800781 C 83.417969 169.527344 83.628906 169.273438 83.859375 169.039062 C 84.09375 168.808594 84.34375 168.601562 84.617188 168.417969 C 84.890625 168.234375 85.179688 168.082031 85.484375 167.953125 C 85.789062 167.828125 86.101562 167.734375 86.421875 167.671875 C 86.746094 167.605469 87.070312 167.574219 87.398438 167.574219 C 87.730469 167.574219 88.054688 167.605469 88.378906 167.671875 C 88.699219 167.734375 89.011719 167.828125 89.316406 167.953125 C 89.621094 168.082031 89.910156 168.234375 90.183594 168.417969 C 90.457031 168.601562 90.707031 168.808594 90.941406 169.039062 C 91.171875 169.273438 91.382812 169.527344 91.5625 169.800781 C 91.746094 170.074219 91.902344 170.359375 92.027344 170.664062 C 92.152344 170.96875 92.246094 171.28125 92.3125 171.605469 C 92.375 171.925781 92.40625 172.253906 92.40625 172.582031 C 92.40625 172.910156 92.375 173.234375 92.3125 173.558594 C 92.246094 173.878906 92.152344 174.191406 92.027344 174.496094 C 91.902344 174.800781 91.746094 175.089844 91.5625 175.363281 C 91.382812 175.636719 91.171875 175.890625 90.941406 176.121094 C 90.707031 176.355469 90.457031 176.5625 90.183594 176.742188 C 89.910156 176.925781 89.621094 177.082031 89.316406 177.207031 C 89.011719 177.332031 88.699219 177.425781 88.378906 177.492188 C 88.054688 177.554688 87.730469 177.589844 87.398438 177.589844 Z M 87.398438 177.589844 " fill-opacity="1" fill-rule="nonzero"/></g><g clip-path="url(#a03489d864)"><path fill="#ffffff" d="M 147.484375 157.558594 C 146.5 157.558594 145.523438 157.65625 144.554688 157.847656 C 143.585938 158.039062 142.648438 158.324219 141.738281 158.703125 C 140.824219 159.082031 139.960938 159.542969 139.140625 160.089844 C 138.320312 160.640625 137.5625 161.261719 136.863281 161.960938 C 136.167969 162.65625 135.542969 163.414062 134.996094 164.234375 C 134.449219 165.054688 133.984375 165.921875 133.609375 166.832031 C 133.230469 167.742188 132.945312 168.683594 132.753906 169.648438 C 132.558594 170.617188 132.464844 171.59375 132.464844 172.582031 C 132.464844 173.566406 132.558594 174.542969 132.753906 175.511719 C 132.945312 176.480469 133.230469 177.417969 133.609375 178.328125 C 133.984375 179.242188 134.449219 180.105469 134.996094 180.925781 C 135.542969 181.746094 136.167969 182.503906 136.863281 183.203125 C 137.5625 183.898438 138.320312 184.523438 139.140625 185.070312 C 139.960938 185.617188 140.824219 186.082031 141.738281 186.457031 C 142.648438 186.835938 143.585938 187.121094 144.554688 187.3125 C 145.523438 187.507812 146.5 187.601562 147.484375 187.601562 C 148.472656 187.601562 149.449219 187.507812 150.414062 187.3125 C 151.382812 187.121094 152.324219 186.835938 153.234375 186.457031 C 154.144531 186.082031 155.011719 185.617188 155.832031 185.070312 C 156.652344 184.523438 157.410156 183.898438 158.105469 183.203125 C 158.804688 182.503906 159.425781 181.746094 159.976562 180.925781 C 160.523438 180.105469 160.984375 179.242188 161.363281 178.328125 C 161.742188 177.417969 162.027344 176.480469 162.21875 175.511719 C 162.410156 174.542969 162.507812 173.566406 162.507812 172.582031 C 162.507812 171.59375 162.410156 170.617188 162.21875 169.648438 C 162.027344 168.683594 161.742188 167.742188 161.363281 166.832031 C 160.984375 165.921875 160.523438 165.054688 159.976562 164.234375 C 159.425781 163.414062 158.804688 162.65625 158.105469 161.960938 C 157.410156 161.261719 156.652344 160.640625 155.832031 160.089844 C 155.011719 159.542969 154.144531 159.082031 153.234375 158.703125 C 152.324219 158.324219 151.382812 158.039062 150.414062 157.847656 C 149.449219 157.65625 148.472656 157.558594 147.484375 157.558594 Z M 147.484375 177.589844 C 147.15625 177.589844 146.832031 177.554688 146.507812 177.492188 C 146.1875 177.425781 145.871094 177.332031 145.570312 177.207031 C 145.265625 177.082031 144.976562 176.925781 144.703125 176.742188 C 144.429688 176.5625 144.175781 176.355469 143.945312 176.121094 C 143.710938 175.890625 143.503906 175.636719 143.320312 175.363281 C 143.140625 175.089844 142.984375 174.800781 142.859375 174.496094 C 142.734375 174.191406 142.636719 173.878906 142.574219 173.558594 C 142.511719 173.234375 142.476562 172.910156 142.476562 172.582031 C 142.476562 172.253906 142.511719 171.925781 142.574219 171.605469 C 142.636719 171.28125 142.734375 170.96875 142.859375 170.664062 C 142.984375 170.359375 143.140625 170.074219 143.320312 169.800781 C 143.503906 169.527344 143.710938 169.273438 143.945312 169.039062 C 144.175781 168.808594 144.429688 168.601562 144.703125 168.417969 C 144.976562 168.234375 145.265625 168.082031 145.570312 167.953125 C 145.871094 167.828125 146.1875 167.734375 146.507812 167.671875 C 146.832031 167.605469 147.15625 167.574219 147.484375 167.574219 C 147.8125 167.574219 148.140625 167.605469 148.460938 167.671875 C 148.785156 167.734375 149.097656 167.828125 149.402344 167.953125 C 149.707031 168.082031 149.992188 168.234375 150.265625 168.417969 C 150.539062 168.601562 150.792969 168.808594 151.027344 169.039062 C 151.257812 169.273438 151.464844 169.527344 151.648438 169.800781 C 151.832031 170.074219 151.984375 170.359375 152.113281 170.664062 C 152.238281 170.96875 152.332031 171.28125 152.394531 171.605469 C 152.460938 171.925781 152.492188 172.253906 152.492188 172.582031 C 152.492188 172.910156 152.460938 173.234375 152.394531 173.558594 C 152.332031 173.878906 152.238281 174.191406 152.113281 174.496094 C 151.984375 174.800781 151.832031 175.089844 151.648438 175.363281 C 151.464844 175.636719 151.257812 175.890625 151.027344 176.121094 C 150.792969 176.355469 150.539062 176.5625 150.265625 176.742188 C 149.992188 176.925781 149.707031 177.082031 149.402344 177.207031 C 149.097656 177.332031 148.785156 177.425781 148.460938 177.492188 C 148.140625 177.554688 147.8125 177.589844 147.484375 177.589844 Z M 147.484375 177.589844 " fill-opacity="1" fill-rule="nonzero"/></g></svg>