<svg xmlns="http://www.w3.org/2000/svg" xmlns:xlink="http://www.w3.org/1999/xlink" width="300" zoomAndPan="magnify" viewBox="0 0 224.87999 225" height="300" preserveAspectRatio="xMidYMid meet" version="1.0"><defs><clipPath id="e9b90e06ff"><path d="M 59.667969 1 L 165.359375 1 L 165.359375 224 L 59.667969 224 Z M 59.667969 1 " clip-rule="nonzero"/></clipPath></defs><g clip-path="url(#e9b90e06ff)"><path fill="#ffffff" d="M 140.976562 37.863281 L 165.359375 37.863281 L 165.359375 1.152344 L 134.222656 1.152344 L 134.222656 1.292969 C 93.289062 2.792969 84.847656 25.6875 84.144531 49.894531 L 84.050781 49.894531 L 84.050781 75.367188 L 59.667969 75.367188 L 59.667969 112.125 L 84.050781 112.125 L 84.050781 223.847656 L 127.800781 223.847656 L 127.800781 112.125 L 159.171875 112.125 L 165.359375 75.367188 L 127.800781 75.367188 L 127.800781 52.566406 C 127.800781 44.464844 133.238281 37.863281 140.976562 37.863281 Z M 140.976562 37.863281 " fill-opacity="1" fill-rule="nonzero"/></g></svg>