<svg xmlns="http://www.w3.org/2000/svg" xmlns:xlink="http://www.w3.org/1999/xlink" width="300" zoomAndPan="magnify" viewBox="0 0 224.87999 225" height="300" preserveAspectRatio="xMidYMid meet" version="1.0"><defs><clipPath id="f265ac515a"><path d="M 0 0.0585938 L 224.761719 0.0585938 L 224.761719 224.9375 L 0 224.9375 Z M 0 0.0585938 " clip-rule="nonzero"/></clipPath><clipPath id="a3bce57941"><path d="M 112.441406 0.0585938 C 50.339844 0.0585938 0 50.402344 0 112.5 C 0 174.597656 50.339844 224.941406 112.441406 224.941406 C 174.539062 224.941406 224.878906 174.597656 224.878906 112.5 C 224.878906 50.402344 174.539062 0.0585938 112.441406 0.0585938 Z M 112.441406 0.0585938 " clip-rule="nonzero"/></clipPath><clipPath id="0d4b80d0fc"><path d="M 73.238281 29.535156 L 151.949219 29.535156 L 151.949219 195 L 73.238281 195 Z M 73.238281 29.535156 " clip-rule="nonzero"/></clipPath></defs><g clip-path="url(#f265ac515a)"><g clip-path="url(#a3bce57941)"><path fill="#48abb4" d="M 0 0.0585938 L 224.878906 0.0585938 L 224.878906 224.941406 L 0 224.941406 Z M 0 0.0585938 " fill-opacity="1" fill-rule="nonzero"/></g></g><g clip-path="url(#0d4b80d0fc)"><path fill="#ffffff" d="M 133.789062 57.015625 L 151.949219 57.015625 L 151.949219 29.792969 L 128.761719 29.792969 L 128.761719 29.894531 C 98.277344 31.007812 91.992188 47.988281 91.46875 65.941406 L 91.398438 65.941406 L 91.398438 84.832031 L 73.238281 84.832031 L 73.238281 112.089844 L 91.398438 112.089844 L 91.398438 194.941406 L 123.976562 194.941406 L 123.976562 112.089844 L 147.339844 112.089844 L 151.949219 84.832031 L 123.976562 84.832031 L 123.976562 67.917969 C 123.976562 61.910156 128.027344 57.015625 133.789062 57.015625 Z M 133.789062 57.015625 " fill-opacity="1" fill-rule="nonzero"/></g></svg>