<svg xmlns="http://www.w3.org/2000/svg" xmlns:xlink="http://www.w3.org/1999/xlink" width="300" zoomAndPan="magnify" viewBox="0 0 224.87999 225" height="300" preserveAspectRatio="xMidYMid meet" version="1.0"><defs><clipPath id="ca8fce1901"><path d="M 0.75 0.808594 L 224.128906 0.808594 L 224.128906 224.191406 L 0.75 224.191406 Z M 0.75 0.808594 " clip-rule="nonzero"/></clipPath></defs><g clip-path="url(#ca8fce1901)"><path fill="#ffffff" d="M 172.082031 224.191406 L 52.796875 224.191406 C 24.097656 224.191406 0.75 200.84375 0.75 172.144531 L 0.75 52.855469 C 0.75 24.15625 24.097656 0.808594 52.796875 0.808594 L 172.082031 0.808594 C 200.78125 0.808594 224.128906 24.15625 224.128906 52.855469 L 224.128906 172.144531 C 224.128906 200.84375 200.78125 224.191406 172.082031 224.191406 Z M 52.796875 9.417969 C 28.84375 9.417969 9.359375 28.90625 9.359375 52.855469 L 9.359375 172.144531 C 9.359375 196.09375 28.84375 215.582031 52.796875 215.582031 L 172.082031 215.582031 C 196.035156 215.582031 215.523438 196.09375 215.523438 172.144531 L 215.523438 52.855469 C 215.523438 28.90625 196.035156 9.417969 172.082031 9.417969 Z M 52.796875 9.417969 " fill-opacity="1" fill-rule="nonzero"/></g><path fill="#ffffff" d="M 112.441406 161.300781 C 83.15625 161.300781 59.335938 137.476562 59.335938 108.195312 C 59.335938 78.914062 83.15625 55.089844 112.441406 55.089844 C 141.722656 55.089844 165.546875 78.914062 165.546875 108.195312 C 165.546875 137.476562 141.722656 161.300781 112.441406 161.300781 Z M 112.441406 63.699219 C 87.902344 63.699219 67.941406 83.660156 67.941406 108.195312 C 67.941406 132.730469 87.902344 152.695312 112.441406 152.695312 C 136.976562 152.695312 156.9375 132.730469 156.9375 108.195312 C 156.9375 83.660156 136.976562 63.699219 112.441406 63.699219 Z M 112.441406 63.699219 " fill-opacity="1" fill-rule="nonzero"/><path fill="#ffffff" d="M 88.707031 108.195312 L 80.097656 108.195312 C 80.097656 90.363281 94.605469 75.855469 112.441406 75.855469 L 112.441406 84.460938 C 99.351562 84.460938 88.707031 95.109375 88.707031 108.195312 Z M 88.707031 108.195312 " fill-opacity="1" fill-rule="nonzero"/><path fill="#ffffff" d="M 183.230469 56.296875 C 174.988281 56.296875 168.28125 49.59375 168.28125 41.347656 C 168.28125 33.105469 174.988281 26.402344 183.230469 26.402344 C 191.472656 26.402344 198.179688 33.105469 198.179688 41.347656 C 198.179688 49.59375 191.472656 56.296875 183.230469 56.296875 Z M 183.230469 35.007812 C 179.734375 35.007812 176.890625 37.851562 176.890625 41.347656 C 176.890625 44.84375 179.734375 47.691406 183.230469 47.691406 C 186.726562 47.691406 189.570312 44.84375 189.570312 41.347656 C 189.570312 37.851562 186.726562 35.007812 183.230469 35.007812 Z M 183.230469 35.007812 " fill-opacity="1" fill-rule="nonzero"/></svg>