<svg xmlns="http://www.w3.org/2000/svg" xmlns:xlink="http://www.w3.org/1999/xlink" width="300" zoomAndPan="magnify" viewBox="0 0 224.87999 225" height="300" preserveAspectRatio="xMidYMid meet" version="1.0"><defs><clipPath id="bd89f88a25"><path d="M 0.75 1 L 60 1 L 60 61 L 0.75 61 Z M 0.75 1 " clip-rule="nonzero"/></clipPath><clipPath id="d9d72c1d6e"><path d="M 77 69 L 224.128906 69 L 224.128906 224 L 77 224 Z M 77 69 " clip-rule="nonzero"/></clipPath></defs><path fill="#ffffff" d="M 52.746094 72.671875 L 7.902344 72.671875 C 5.914062 72.671875 4.300781 74.285156 4.300781 76.277344 L 4.300781 220.339844 C 4.300781 222.332031 5.914062 223.945312 7.902344 223.945312 L 52.746094 223.945312 C 54.738281 223.945312 56.351562 222.332031 56.351562 220.339844 L 56.351562 76.277344 C 56.351562 74.285156 54.738281 72.671875 52.746094 72.671875 Z M 52.746094 72.671875 " fill-opacity="1" fill-rule="nonzero"/><g clip-path="url(#bd89f88a25)"><path fill="#ffffff" d="M 30.339844 1.054688 C 14.023438 1.054688 0.75 14.316406 0.75 30.613281 C 0.75 46.921875 14.023438 60.1875 30.339844 60.1875 C 46.644531 60.1875 59.910156 46.917969 59.910156 30.613281 C 59.910156 14.316406 46.644531 1.054688 30.339844 1.054688 Z M 30.339844 1.054688 " fill-opacity="1" fill-rule="nonzero"/></g><g clip-path="url(#d9d72c1d6e)"><path fill="#ffffff" d="M 166.8125 69.09375 C 148.800781 69.09375 135.484375 76.835938 127.410156 85.632812 L 127.410156 76.277344 C 127.410156 74.285156 125.796875 72.671875 123.808594 72.671875 L 80.859375 72.671875 C 78.871094 72.671875 77.257812 74.285156 77.257812 76.277344 L 77.257812 220.339844 C 77.257812 222.332031 78.871094 223.945312 80.859375 223.945312 L 125.605469 223.945312 C 127.597656 223.945312 129.210938 222.332031 129.210938 220.339844 L 129.210938 149.0625 C 129.210938 125.042969 135.734375 115.6875 152.476562 115.6875 C 170.710938 115.6875 172.160156 130.6875 172.160156 150.296875 L 172.160156 220.339844 C 172.160156 222.332031 173.773438 223.945312 175.765625 223.945312 L 220.527344 223.945312 C 222.519531 223.945312 224.128906 222.332031 224.128906 220.339844 L 224.128906 141.320312 C 224.128906 105.605469 217.320312 69.09375 166.8125 69.09375 Z M 166.8125 69.09375 " fill-opacity="1" fill-rule="nonzero"/></g></svg>