<svg xmlns="http://www.w3.org/2000/svg" xmlns:xlink="http://www.w3.org/1999/xlink" width="500" zoomAndPan="magnify" viewBox="0 0 375 374.999991" height="500" preserveAspectRatio="xMidYMid meet" version="1.0"><path stroke-linecap="round" transform="matrix(0.75, 0, 0, 0.75, 37.500002, 37.499998)" fill="none" stroke-linejoin="miter" d="M 40 40.000006 L 360.000021 40.000006 " stroke="#ffffff" stroke-width="80" stroke-opacity="1" stroke-miterlimit="4"/><path stroke-linecap="round" transform="matrix(0.75, 0, 0, 0.75, 37.500002, 117.499994)" fill="none" stroke-linejoin="miter" d="M 40 40.000011 L 360.000021 40.000011 " stroke="#ffffff" stroke-width="80" stroke-opacity="1" stroke-miterlimit="4"/><path stroke-linecap="round" transform="matrix(0.75, -0.000000000000000186, 0.000000000000000186, 0.75, 37.500002, 277.499982)" fill="none" stroke-linejoin="miter" d="M 40 40.000027 L 173.666675 40.000027 " stroke="#ffffff" stroke-width="80" stroke-opacity="1" stroke-miterlimit="4"/><path stroke-linecap="round" transform="matrix(0.75, -0.000000000000000186, 0.000000000000000186, 0.75, 37.500002, 197.499993)" fill="none" stroke-linejoin="miter" d="M 40 40.000012 L 173.666675 40.000012 " stroke="#ffffff" stroke-width="80" stroke-opacity="1" stroke-miterlimit="4"/><path fill="#ffffff" d="M 302.921875 288.902344 L 333.757812 319.734375 C 337.625 323.609375 337.625 329.886719 333.757812 333.757812 C 329.886719 337.621094 323.609375 337.621094 319.742188 333.757812 L 288.902344 302.921875 Z M 302.921875 288.902344 " fill-opacity="1" fill-rule="nonzero"/><path fill="#ffffff" d="M 216.175781 216.175781 C 234.597656 197.761719 264.558594 197.761719 282.96875 216.175781 C 299.738281 232.933594 301.191406 259.234375 287.445312 277.722656 L 296.707031 286.980469 L 286.976562 296.699219 L 277.714844 287.4375 C 259.242188 301.191406 232.9375 299.738281 216.175781 282.972656 C 197.757812 264.558594 197.757812 234.597656 216.175781 216.175781 Z M 223.210938 275.941406 C 237.75 290.484375 261.40625 290.484375 275.945312 275.941406 C 290.484375 261.402344 290.484375 237.746094 275.945312 223.207031 C 261.402344 208.667969 237.746094 208.667969 223.210938 223.207031 C 208.667969 237.75 208.667969 261.402344 223.210938 275.941406 Z M 223.210938 275.941406 " fill-opacity="1" fill-rule="nonzero"/><path fill="#ffffff" d="M 230.882812 221.191406 C 242.21875 213.714844 256.878906 213.695312 268.222656 221.167969 C 269.367188 221.925781 269.691406 223.464844 268.9375 224.609375 C 268.839844 224.75 268.730469 224.886719 268.617188 225 C 267.800781 225.816406 266.492188 225.976562 265.496094 225.316406 C 255.804688 218.945312 243.300781 218.957031 233.617188 225.34375 C 232.472656 226.105469 230.929688 225.78125 230.175781 224.640625 C 229.425781 223.5 229.726562 221.957031 230.882812 221.191406 Z M 230.882812 221.191406 " fill-opacity="1" fill-rule="nonzero"/></svg>