<svg xmlns="http://www.w3.org/2000/svg" xmlns:xlink="http://www.w3.org/1999/xlink" width="300" zoomAndPan="magnify" viewBox="0 0 224.87999 225" height="300" preserveAspectRatio="xMidYMid meet" version="1.0"><defs><clipPath id="f6e119000c"><path d="M 0 58.386719 L 224.761719 58.386719 L 224.761719 166.332031 L 0 166.332031 Z M 0 58.386719 " clip-rule="nonzero"/></clipPath><clipPath id="153439e9e4"><path d="M 60.144531 60.203125 L 165 60.203125 L 165 165 L 60.144531 165 Z M 60.144531 60.203125 " clip-rule="nonzero"/></clipPath></defs><g clip-path="url(#f6e119000c)"><path fill="#06555c" d="M 210.410156 112.488281 C 210.410156 104.613281 216.792969 98.226562 224.667969 98.226562 L 224.667969 92.746094 C 223.050781 92.746094 221.742188 91.4375 221.742188 89.820312 C 221.742188 88.207031 223.050781 86.894531 224.667969 86.894531 L 224.667969 81.414062 C 223.050781 81.414062 221.742188 80.105469 221.742188 78.488281 C 221.742188 76.871094 223.050781 75.5625 224.667969 75.5625 L 224.667969 70.082031 C 223.050781 70.082031 221.742188 68.773438 221.742188 67.15625 C 221.742188 65.539062 223.050781 64.230469 224.667969 64.230469 L 224.667969 58.378906 L 0.210938 58.378906 L 0.210938 64.230469 C 1.828125 64.230469 3.136719 65.542969 3.136719 67.15625 C 3.136719 68.773438 1.828125 70.082031 0.210938 70.082031 L 0.210938 75.5625 C 1.828125 75.5625 3.136719 76.875 3.136719 78.488281 C 3.136719 80.105469 1.828125 81.417969 0.210938 81.417969 L 0.210938 86.898438 C 1.828125 86.898438 3.136719 88.207031 3.136719 89.820312 C 3.136719 91.4375 1.828125 92.746094 0.210938 92.746094 L 0.210938 98.230469 C 8.085938 98.230469 14.46875 104.613281 14.46875 112.484375 C 14.46875 120.34375 8.113281 126.714844 0.261719 126.738281 C 0.242188 126.738281 0.230469 126.746094 0.210938 126.746094 L 0.210938 132.226562 C 1.828125 132.226562 3.136719 133.535156 3.136719 135.152344 C 3.136719 136.769531 1.828125 138.078125 0.210938 138.078125 L 0.210938 143.558594 C 1.828125 143.558594 3.136719 144.867188 3.136719 146.484375 C 3.136719 148.101562 1.828125 149.410156 0.210938 149.410156 L 0.210938 154.890625 C 1.828125 154.890625 3.136719 156.199219 3.136719 157.816406 C 3.136719 159.433594 1.828125 160.742188 0.210938 160.742188 L 0.210938 166.589844 L 224.667969 166.589844 L 224.667969 160.742188 C 223.050781 160.742188 221.742188 159.429688 221.742188 157.816406 C 221.742188 156.199219 223.050781 154.890625 224.667969 154.890625 L 224.667969 149.410156 C 223.050781 149.410156 221.742188 148.097656 221.742188 146.484375 C 221.742188 144.867188 223.050781 143.554688 224.667969 143.554688 L 224.667969 138.074219 C 223.050781 138.074219 221.742188 136.765625 221.742188 135.152344 C 221.742188 133.535156 223.050781 132.222656 224.667969 132.222656 L 224.667969 126.746094 C 216.792969 126.746094 210.410156 120.363281 210.410156 112.488281 " fill-opacity="1" fill-rule="nonzero"/></g><g clip-path="url(#153439e9e4)"><path fill="#ffffff" d="M 112.4375 60.203125 C 83.554688 60.203125 60.144531 83.617188 60.144531 112.5 C 60.144531 141.382812 83.554688 164.796875 112.4375 164.796875 C 141.320312 164.796875 164.734375 141.382812 164.734375 112.5 C 164.734375 83.617188 141.320312 60.203125 112.4375 60.203125 Z M 112.4375 67.789062 C 137.09375 67.789062 157.148438 87.847656 157.148438 112.5 C 157.148438 137.152344 137.09375 157.207031 112.4375 157.207031 C 87.785156 157.207031 67.730469 137.152344 67.730469 112.5 C 67.730469 87.847656 87.785156 67.789062 112.4375 67.789062 " fill-opacity="1" fill-rule="nonzero"/></g><path fill="#ffffff" d="M 131.84375 116.292969 L 93.035156 116.292969 C 90.9375 116.292969 89.242188 114.59375 89.242188 112.496094 C 89.242188 110.402344 90.9375 108.703125 93.035156 108.703125 L 131.84375 108.703125 C 133.9375 108.703125 135.636719 110.402344 135.636719 112.496094 C 135.636719 114.59375 133.9375 116.292969 131.84375 116.292969 " fill-opacity="1" fill-rule="nonzero"/><path fill="#ffffff" d="M 131.84375 98.589844 L 93.035156 98.589844 C 90.9375 98.589844 89.242188 96.890625 89.242188 94.796875 C 89.242188 92.699219 90.9375 91 93.035156 91 L 131.84375 91 C 133.9375 91 135.636719 92.699219 135.636719 94.796875 C 135.636719 96.890625 133.9375 98.589844 131.84375 98.589844 " fill-opacity="1" fill-rule="nonzero"/><path fill="#ffffff" d="M 131.84375 133.996094 L 93.035156 133.996094 C 90.9375 133.996094 89.242188 132.296875 89.242188 130.203125 C 89.242188 128.105469 90.9375 126.40625 93.035156 126.40625 L 131.84375 126.40625 C 133.9375 126.40625 135.636719 128.105469 135.636719 130.203125 C 135.636719 132.296875 133.9375 133.996094 131.84375 133.996094 " fill-opacity="1" fill-rule="nonzero"/></svg>