<svg xmlns="http://www.w3.org/2000/svg" xmlns:xlink="http://www.w3.org/1999/xlink" width="300" zoomAndPan="magnify" viewBox="0 0 224.87999 225" height="300" preserveAspectRatio="xMidYMid meet" version="1.0"><defs><clipPath id="ba99fe403b"><path d="M 3.269531 0.0585938 L 221.40625 0.0585938 L 221.40625 224.9375 L 3.269531 224.9375 Z M 3.269531 0.0585938 " clip-rule="nonzero"/></clipPath><clipPath id="e70e697666"><path d="M 62.523438 129.65625 L 152.476562 129.65625 L 152.476562 215 L 62.523438 215 Z M 62.523438 129.65625 " clip-rule="nonzero"/></clipPath></defs><g clip-path="url(#ba99fe403b)"><path fill="#ffffff" d="M 3.535156 91.394531 L 3.535156 222.558594 C 3.535156 222.875 3.597656 223.179688 3.71875 223.46875 C 3.835938 223.761719 4.011719 224.019531 4.234375 224.242188 C 4.457031 224.464844 4.714844 224.636719 5.003906 224.757812 C 5.296875 224.878906 5.601562 224.941406 5.917969 224.941406 L 209.535156 224.941406 C 209.847656 224.941406 210.152344 224.878906 210.445312 224.757812 C 210.738281 224.636719 210.992188 224.464844 211.21875 224.242188 C 211.441406 224.019531 211.613281 223.761719 211.734375 223.46875 C 211.855469 223.179688 211.914062 222.875 211.914062 222.558594 L 211.914062 91.394531 C 211.910156 90.964844 211.796875 90.5625 211.578125 90.191406 L 211.710938 90.078125 L 211.824219 89.988281 C 211.902344 89.925781 211.96875 89.855469 212.027344 89.777344 L 212.128906 89.664062 L 212.296875 89.40625 C 212.320312 89.371094 212.339844 89.332031 212.351562 89.292969 C 212.421875 89.164062 212.480469 89.027344 212.519531 88.890625 L 220.945312 59.59375 C 221.03125 59.289062 221.058594 58.980469 221.023438 58.667969 C 220.988281 58.355469 220.890625 58.0625 220.738281 57.785156 C 220.585938 57.507812 220.386719 57.273438 220.140625 57.078125 C 219.894531 56.878906 219.621094 56.738281 219.316406 56.652344 L 203.121094 51.957031 L 184.820312 46.699219 L 168.757812 42.082031 L 145.496094 35.34375 L 131.824219 31.410156 L 113.910156 26.34375 L 104.53125 23.636719 L 79.109375 16.335938 L 76.707031 15.640625 L 43.402344 6.070312 L 25.742188 0.980469 L 23.621094 0.375 C 23.316406 0.289062 23.007812 0.261719 22.695312 0.296875 C 22.382812 0.332031 22.085938 0.429688 21.8125 0.582031 C 21.535156 0.734375 21.300781 0.933594 21.101562 1.179688 C 20.90625 1.425781 20.765625 1.699219 20.675781 2.003906 L 12.261719 31.296875 C 12.089844 31.9375 12.175781 32.539062 12.523438 33.105469 C 12.839844 33.675781 13.3125 34.050781 13.9375 34.230469 L 27.429688 38.140625 L 45.097656 43.214844 L 63.148438 48.40625 L 64.855469 48.898438 L 138.070312 69.929688 L 151.167969 73.703125 L 168.847656 78.777344 L 174.578125 80.429688 L 204.34375 89.023438 L 5.917969 89.023438 C 5.601562 89.023438 5.300781 89.082031 5.007812 89.203125 C 4.71875 89.324219 4.460938 89.496094 4.238281 89.71875 C 4.015625 89.9375 3.839844 90.195312 3.71875 90.484375 C 3.597656 90.777344 3.539062 91.078125 3.535156 91.394531 Z M 40.007812 119.476562 L 29.976562 93.765625 L 43.648438 93.765625 L 53.679688 119.496094 Z M 77.15625 119.476562 L 67.125 93.765625 L 79.917969 93.765625 L 89.949219 119.496094 Z M 113.371094 119.476562 L 103.339844 93.765625 L 116.875 93.765625 L 126.90625 119.496094 Z M 150.382812 119.476562 L 140.351562 93.765625 L 153.640625 93.765625 L 163.671875 119.496094 Z M 187.15625 119.476562 L 177.125 93.742188 L 191.054688 93.742188 L 201.085938 119.476562 Z M 45.433594 11.597656 L 58.578125 15.382812 L 61.105469 42.867188 L 47.960938 39.09375 Z M 81.144531 21.863281 L 93.398438 25.378906 L 95.925781 52.875 L 83.671875 49.359375 Z M 115.964844 31.871094 L 128.972656 35.613281 L 131.5 63.109375 L 118.46875 59.367188 Z M 151.527344 42.105469 L 164.308594 45.777344 L 166.816406 73.296875 L 154.054688 69.601562 Z M 186.875 52.214844 L 200.265625 56.066406 L 202.792969 83.5625 L 189.402344 79.710938 Z M 16.53125 119.496094 L 8.289062 119.496094 L 8.289062 98.371094 Z M 23.273438 10.035156 L 25.351562 32.601562 L 17.488281 30.355469 Z M 8.289062 220.1875 L 8.289062 124.25 L 207.105469 124.25 L 207.105469 220.1875 Z M 8.289062 220.1875 " fill-opacity="1" fill-rule="nonzero"/></g><g clip-path="url(#e70e697666)"><path fill="#ffffff" d="M 151.148438 130.023438 C 138.460938 136.945312 112.21875 158.496094 91.28125 192.777344 C 90.597656 193.890625 89.144531 194.246094 88.027344 193.570312 L 88.015625 193.5625 C 87.441406 193.207031 86.875 192.835938 86.324219 192.445312 C 79.5 187.628906 64.578125 179.15625 64.578125 179.15625 C 63.644531 178.628906 62.679688 179.332031 62.59375 180.195312 C 62.566406 180.253906 62.566406 180.347656 62.597656 180.472656 C 62.621094 180.664062 62.691406 180.855469 62.816406 181.042969 C 64.0625 183.714844 69.996094 191.835938 75.605469 199.402344 C 81.878906 207.859375 87.433594 212.664062 88.324219 213.417969 C 88.355469 213.445312 88.390625 213.472656 88.425781 213.5 C 88.441406 213.515625 88.453125 213.523438 88.453125 213.523438 C 90.140625 214.875 92.753906 214.457031 93.871094 212.453125 C 102.394531 197.171875 129.988281 149.425781 151.855469 131.054688 C 152.4375 130.566406 151.816406 129.65625 151.148438 130.023438 Z M 151.148438 130.023438 " fill-opacity="1" fill-rule="nonzero"/></g></svg>