<svg xmlns="http://www.w3.org/2000/svg" xmlns:xlink="http://www.w3.org/1999/xlink" width="300" zoomAndPan="magnify" viewBox="0 0 224.87999 225" height="300" preserveAspectRatio="xMidYMid meet" version="1.0"><defs><clipPath id="27202c3490"><path d="M 0 0.0585938 L 224.761719 0.0585938 L 224.761719 224.9375 L 0 224.9375 Z M 0 0.0585938 " clip-rule="nonzero"/></clipPath><clipPath id="07f1dbc8ec"><path d="M 112.441406 0.0585938 C 50.339844 0.0585938 0 50.402344 0 112.5 C 0 174.597656 50.339844 224.941406 112.441406 224.941406 C 174.539062 224.941406 224.878906 174.597656 224.878906 112.5 C 224.878906 50.402344 174.539062 0.0585938 112.441406 0.0585938 Z M 112.441406 0.0585938 " clip-rule="nonzero"/></clipPath><clipPath id="3dd208e76a"><path d="M 35.667969 40.332031 L 189.335938 40.332031 L 189.335938 185 L 35.667969 185 Z M 35.667969 40.332031 " clip-rule="nonzero"/></clipPath></defs><g clip-path="url(#27202c3490)"><g clip-path="url(#07f1dbc8ec)"><path fill="#48abb4" d="M 0 0.0585938 L 224.878906 0.0585938 L 224.878906 224.941406 L 0 224.941406 Z M 0 0.0585938 " fill-opacity="1" fill-rule="nonzero"/></g></g><path fill="#ffffff" d="M 113.421875 183.265625 C 113.011719 183.265625 112.601562 183.265625 112.296875 183.265625 C 112.089844 183.265625 111.785156 183.265625 111.578125 183.265625 C 102.679688 183.265625 96.949219 179.269531 91.425781 175.273438 C 87.640625 172.609375 84.058594 170.046875 79.761719 169.332031 C 77.714844 169.023438 75.667969 168.820312 73.621094 168.820312 C 70.042969 168.820312 67.175781 169.332031 65.132812 169.742188 C 63.902344 169.945312 62.777344 170.152344 61.960938 170.152344 C 61.140625 170.152344 60.117188 169.945312 59.8125 168.613281 C 59.503906 167.382812 59.195312 166.257812 58.992188 165.128906 C 58.378906 162.261719 57.867188 160.417969 56.742188 160.316406 C 42.625 158.164062 38.53125 155.191406 37.710938 153.039062 C 37.609375 152.730469 37.507812 152.425781 37.507812 152.117188 C 37.507812 151.296875 38.019531 150.582031 38.835938 150.476562 C 60.527344 146.890625 70.246094 124.65625 70.65625 123.734375 C 70.65625 123.734375 70.65625 123.632812 70.65625 123.632812 C 71.984375 120.96875 72.292969 118.613281 71.472656 116.664062 C 69.941406 113.179688 65.132812 111.644531 61.960938 110.621094 C 61.140625 110.414062 60.425781 110.105469 59.8125 109.902344 C 53.367188 107.339844 52.855469 104.777344 53.160156 103.445312 C 53.570312 101.191406 56.640625 99.554688 59.09375 99.554688 C 59.8125 99.554688 60.324219 99.65625 60.835938 99.859375 C 63.699219 101.191406 66.359375 101.910156 68.609375 101.910156 C 71.679688 101.910156 73.109375 100.578125 73.214844 100.476562 C 73.109375 99.042969 73.007812 97.503906 72.90625 95.863281 C 72.292969 85.617188 71.472656 72.808594 74.75 65.535156 C 84.46875 43.710938 105.132812 41.96875 111.171875 41.96875 C 111.375 41.96875 113.828125 41.96875 113.828125 41.96875 L 114.238281 41.96875 C 120.378906 41.96875 141.042969 43.710938 150.761719 65.535156 C 154.039062 72.808594 153.21875 85.617188 152.605469 95.863281 L 152.605469 96.273438 C 152.503906 97.710938 152.402344 99.144531 152.402344 100.476562 C 152.605469 100.679688 153.832031 101.808594 156.59375 101.910156 C 158.742188 101.808594 161.199219 101.191406 163.859375 99.859375 C 164.675781 99.449219 165.496094 99.449219 166.109375 99.449219 C 167.03125 99.449219 167.953125 99.65625 168.667969 99.964844 C 170.816406 100.78125 172.25 102.21875 172.351562 103.855469 C 172.351562 105.394531 171.226562 107.648438 165.597656 109.902344 C 164.984375 110.105469 164.269531 110.414062 163.449219 110.621094 C 160.277344 111.644531 155.367188 113.179688 153.933594 116.664062 C 153.117188 118.613281 153.421875 120.96875 154.753906 123.632812 C 154.753906 123.632812 154.753906 123.734375 154.753906 123.734375 C 155.164062 124.65625 164.882812 146.890625 186.570312 150.476562 C 187.390625 150.582031 187.902344 151.296875 187.902344 152.117188 C 187.902344 152.425781 187.800781 152.730469 187.695312 153.039062 C 186.777344 155.089844 182.785156 158.164062 168.667969 160.316406 C 167.542969 160.519531 167.03125 161.953125 166.417969 165.128906 C 166.210938 166.257812 165.90625 167.382812 165.597656 168.613281 C 165.292969 169.640625 164.675781 170.152344 163.550781 170.152344 L 163.347656 170.152344 C 162.632812 170.152344 161.507812 170.046875 160.175781 169.742188 C 157.824219 169.230469 155.0625 168.820312 151.683594 168.820312 C 149.742188 168.820312 147.59375 169.023438 145.546875 169.332031 C 141.351562 170.046875 137.667969 172.609375 133.882812 175.273438 C 128.050781 179.269531 122.320312 183.265625 113.421875 183.265625 Z M 113.421875 183.265625 " fill-opacity="1" fill-rule="nonzero"/><g clip-path="url(#3dd208e76a)"><path fill="#020202" d="M 114.035156 43.609375 C 119.867188 43.609375 139.714844 45.144531 149.125 66.253906 C 152.195312 73.21875 151.378906 85.722656 150.761719 95.863281 C 150.660156 97.503906 150.558594 99.042969 150.457031 100.476562 L 150.457031 101.089844 L 150.867188 101.601562 C 151.070312 101.808594 152.605469 103.445312 156.1875 103.652344 L 156.390625 103.652344 C 158.742188 103.550781 161.402344 102.832031 164.269531 101.5 C 164.675781 101.296875 165.292969 101.191406 165.90625 101.191406 C 166.621094 101.191406 167.335938 101.296875 167.953125 101.601562 L 168.054688 101.601562 C 169.589844 102.113281 170.613281 103.140625 170.613281 104.0625 C 170.613281 104.574219 170.203125 106.417969 164.882812 108.570312 C 164.371094 108.773438 163.65625 108.980469 162.835938 109.289062 C 159.359375 110.414062 154.039062 112.054688 152.296875 116.253906 C 151.273438 118.613281 151.582031 121.378906 153.117188 124.554688 C 153.730469 125.988281 163.757812 148.53125 186.164062 152.21875 C 186.164062 152.324219 186.164062 152.425781 186.058594 152.628906 C 185.652344 153.550781 183.296875 156.625 168.257812 158.984375 C 165.90625 159.390625 165.292969 161.953125 164.675781 165.027344 C 164.472656 166.15625 164.167969 167.28125 163.859375 168.410156 C 163.757812 168.714844 163.757812 168.820312 163.347656 168.820312 C 163.347656 168.820312 163.246094 168.820312 163.144531 168.820312 C 162.425781 168.820312 161.507812 168.714844 160.277344 168.410156 C 158.128906 168 155.265625 167.488281 151.480469 167.488281 C 149.433594 167.488281 147.285156 167.691406 145.136719 168 C 140.53125 168.714844 136.746094 171.378906 132.859375 174.25 C 127.539062 178.039062 122.015625 181.933594 113.625 181.933594 C 113.214844 181.933594 112.910156 181.933594 112.5 181.933594 L 112.296875 181.933594 C 112.089844 181.933594 111.886719 181.933594 111.679688 181.933594 C 103.292969 181.933594 97.765625 178.039062 92.449219 174.25 C 88.457031 171.484375 84.773438 168.820312 80.171875 168 C 78.023438 167.691406 75.875 167.488281 73.828125 167.488281 C 70.144531 167.488281 67.175781 168.101562 65.027344 168.511719 C 63.902344 168.714844 62.878906 168.921875 62.164062 168.921875 C 61.652344 168.921875 61.652344 168.921875 61.449219 168.511719 C 61.140625 167.382812 60.835938 166.257812 60.628906 165.128906 C 59.914062 162.054688 59.402344 159.390625 57.046875 159.085938 C 42.007812 156.726562 39.554688 153.65625 39.246094 152.730469 C 39.144531 152.628906 39.144531 152.425781 39.144531 152.324219 C 61.550781 148.632812 71.578125 126.089844 72.191406 124.65625 C 73.726562 121.480469 74.03125 118.714844 73.007812 116.359375 C 71.269531 112.15625 65.949219 110.515625 62.472656 109.390625 C 61.652344 109.183594 60.9375 108.878906 60.425781 108.671875 C 55.921875 106.828125 54.492188 105.085938 54.695312 103.960938 C 54.898438 102.730469 57.152344 101.398438 58.992188 101.398438 C 59.402344 101.398438 59.8125 101.5 60.117188 101.601562 C 63.1875 103.039062 66.050781 103.753906 68.507812 103.753906 C 72.394531 103.753906 74.132812 101.910156 74.339844 101.707031 L 74.746094 101.191406 L 74.746094 100.578125 C 74.644531 99.144531 74.542969 97.503906 74.441406 95.96875 C 73.621094 85.722656 72.90625 73.21875 75.976562 66.253906 C 85.285156 45.246094 105.132812 43.609375 110.964844 43.609375 C 111.066406 43.609375 113.625 43.609375 113.625 43.609375 C 113.726562 43.609375 113.828125 43.609375 114.035156 43.609375 M 114.035156 40.433594 C 113.933594 40.433594 113.726562 40.433594 113.625 40.433594 C 113.625 40.433594 111.171875 40.433594 110.964844 40.433594 C 104.621094 40.433594 83.136719 42.175781 73.007812 64.921875 C 69.632812 72.605469 70.449219 85.515625 71.066406 95.96875 C 71.167969 97.195312 71.269531 98.425781 71.269531 99.757812 C 70.757812 100.066406 69.835938 100.375 68.300781 100.375 C 66.257812 100.375 63.902344 99.757812 61.242188 98.527344 C 60.527344 98.222656 59.707031 98.015625 58.789062 98.015625 C 55.617188 98.015625 51.933594 100.066406 51.320312 103.140625 C 50.910156 105.394531 51.933594 108.570312 58.992188 111.4375 C 59.605469 111.644531 60.425781 111.953125 61.242188 112.15625 C 64.210938 113.078125 68.609375 114.511719 69.835938 117.382812 C 70.449219 118.816406 70.246094 120.761719 69.121094 123.019531 C 69.121094 123.121094 69.121094 123.121094 69.019531 123.222656 C 68.609375 124.144531 59.195312 145.558594 38.429688 149.042969 C 36.792969 149.351562 35.667969 150.785156 35.769531 152.324219 C 35.769531 152.835938 35.871094 153.246094 36.074219 153.757812 C 37.609375 157.445312 44.261719 160.109375 56.230469 161.953125 C 56.640625 162.464844 57.046875 164.414062 57.355469 165.644531 C 57.558594 166.769531 57.867188 168 58.277344 169.230469 C 58.6875 170.457031 59.605469 171.894531 61.960938 171.894531 C 62.984375 171.894531 64.109375 171.6875 65.4375 171.378906 C 67.484375 170.96875 70.144531 170.457031 73.621094 170.457031 C 75.566406 170.457031 77.511719 170.664062 79.453125 170.96875 C 83.34375 171.585938 86.617188 173.941406 90.402344 176.605469 C 95.824219 180.5 102.066406 184.90625 111.476562 184.90625 C 111.785156 184.90625 111.988281 184.90625 112.296875 184.90625 C 112.601562 184.90625 113.011719 184.90625 113.421875 184.90625 C 122.832031 184.90625 128.972656 180.5 134.496094 176.605469 C 138.28125 173.941406 141.65625 171.585938 145.546875 170.972656 C 147.488281 170.664062 149.535156 170.457031 151.378906 170.457031 C 154.652344 170.457031 157.210938 170.867188 159.5625 171.277344 C 160.996094 171.585938 162.222656 171.6875 163.039062 171.6875 L 163.246094 171.6875 C 164.984375 171.6875 166.316406 170.765625 166.824219 169.023438 C 167.234375 167.792969 167.441406 166.667969 167.746094 165.4375 C 167.953125 164.3125 168.464844 162.363281 168.769531 161.851562 C 180.84375 160.007812 187.390625 157.34375 188.925781 153.65625 C 189.128906 153.140625 189.230469 152.730469 189.230469 152.21875 C 189.335938 150.582031 188.207031 149.144531 186.570312 148.941406 C 165.699219 145.457031 156.289062 124.042969 155.980469 123.121094 C 155.980469 123.019531 155.980469 123.019531 155.878906 122.914062 C 154.753906 120.660156 154.550781 118.714844 155.164062 117.28125 C 156.390625 114.410156 160.789062 113.078125 163.757812 112.054688 C 164.574219 111.746094 165.394531 111.542969 166.007812 111.335938 C 171.226562 109.289062 173.78125 106.726562 173.78125 103.855469 C 173.78125 101.601562 171.941406 99.554688 169.078125 98.527344 C 168.15625 98.117188 167.03125 97.914062 165.90625 97.914062 C 165.1875 97.914062 164.0625 98.015625 162.9375 98.527344 C 160.484375 99.65625 158.230469 100.269531 156.289062 100.375 C 155.058594 100.269531 154.140625 99.964844 153.730469 99.757812 C 153.832031 98.734375 153.832031 97.605469 153.933594 96.480469 L 153.933594 96.070312 C 154.550781 85.617188 155.367188 72.605469 151.992188 65.023438 C 141.863281 42.175781 120.378906 40.433594 114.035156 40.433594 Z M 114.035156 40.433594 " fill-opacity="1" fill-rule="nonzero"/></g></svg>